<svg width="22" height="21" viewBox="0 0 22 21" fill="none" xmlns="http://www.w3.org/2000/svg">
<path d="M9.81211 0.459616C10.2057 -0.153147 11.1013 -0.153147 11.4949 0.459616L14.5339 5.19107C14.6693 5.4019 14.879 5.55421 15.1213 5.61785L20.5603 7.04604C21.2647 7.23101 21.5415 8.08279 21.0803 8.64646L17.5196 12.9989C17.3609 13.1928 17.2808 13.4392 17.2952 13.6894L17.6177 19.3035C17.6594 20.0306 16.9348 20.557 16.2563 20.2926L11.0165 18.2511C10.7831 18.1601 10.5239 18.1601 10.2905 18.2511L5.05075 20.2926C4.37217 20.557 3.64759 20.0306 3.68936 19.3035L4.01181 13.6894C4.02618 13.4392 3.9461 13.1928 3.78744 12.9989L0.226666 8.64646C-0.234484 8.08279 0.0422786 7.23101 0.746673 7.04604L6.18567 5.61785C6.42803 5.55421 6.63766 5.4019 6.77308 5.19107L9.81211 0.459616Z" fill="#FFE600"/>
</svg>
