<svg width="20" height="20" viewBox="0 0 20 20" fill="none" xmlns="http://www.w3.org/2000/svg">
<g clip-path="url(#clip0_1_10476)">
<g clip-path="url(#clip1_1_10476)">
<path d="M0.837286 3.26618C0.612648 3.53034 0.387352 3.79385 0.167984 4.05142C-0.262846 3.61664 -0.63834 3.23851 -1 2.87422C-0.083004 1.9559 0.852437 1.0198 1.77602 0.0955599C2.70026 1.02178 3.63505 1.95788 4.55072 2.87553C4.19302 3.23324 3.81489 3.61071 3.40382 4.02178C3.16601 3.7563 2.91041 3.47105 2.59025 3.11466V6.90452C4.31555 5.17659 6.08234 3.40847 7.8386 1.64958C7.37549 1.64958 6.85112 1.6173 6.33333 1.65946C5.88472 1.69569 5.57115 1.54813 5.27866 1.21743C4.92358 0.816245 4.51976 0.457879 4.08235 0.0277074C4.24769 0.015191 4.33794 0.00267448 4.42885 0.00267448C8.82148 0.00201572 13.2141 3.94367e-05 17.6067 0.00267448C19.0086 0.00333324 20.0079 0.980277 20.0099 2.37356C20.0171 6.78924 20.0125 11.2043 20.0125 15.6199C20.0125 15.6812 20.0059 15.7431 19.9209 15.863C19.5231 15.4467 19.143 15.0112 18.72 14.6219C18.4453 14.3689 18.3347 14.1054 18.357 13.7339C18.3887 13.2141 18.365 12.6911 18.365 12.1746C16.6008 13.9408 14.8544 15.6884 13.112 17.4328H16.9091C16.554 17.143 16.2615 16.9045 15.9743 16.67C16.4453 16.2168 16.8287 15.8479 17.2016 15.4882C18.0837 16.3801 19.0152 17.3215 19.9401 18.2563C19.0441 19.1456 18.1047 20.0784 17.1752 21.0007C16.8261 20.645 16.4545 20.2668 16.0586 19.8637C16.2813 19.6674 16.5349 19.4434 16.7885 19.2194C16.7727 19.1805 16.7569 19.1417 16.7404 19.1035H16.3775C12.0507 19.1035 7.72398 19.1048 3.39723 19.1028C2.21278 19.1028 1.35903 18.5284 1.03294 17.4836C0.943346 17.1964 0.917655 16.8801 0.916996 16.5765C0.90975 12.2708 0.912385 7.96513 0.912385 3.65946C0.912385 3.54352 0.912385 3.42692 0.912385 3.31098C0.886693 3.29582 0.861001 3.28133 0.83531 3.26618H0.837286ZM2.56258 16.1832C7.40975 11.3354 12.249 6.49477 17.0935 1.64958C16.4032 1.64958 15.6937 1.64365 14.9842 1.65682C14.8933 1.6588 14.7879 1.74181 14.7154 1.81427C10.7167 5.809 6.72003 9.80636 2.72596 13.8064C2.65415 13.8788 2.57115 13.9842 2.56917 14.0751C2.55599 14.784 2.56192 15.4928 2.56192 16.1825L2.56258 16.1832ZM18.365 2.95788C13.5296 7.79187 8.69499 12.6259 3.86693 17.4526C4.52569 17.4526 5.22464 17.4585 5.92358 17.4454C6.01449 17.4434 6.11858 17.3571 6.19104 17.284C10.1963 13.2826 14.1996 9.2787 18.1996 5.27277C18.2721 5.2003 18.3557 5.0949 18.357 5.00399C18.3702 4.30571 18.3643 3.60676 18.3643 2.95788H18.365ZM18.365 7.58766C15.0758 10.8742 11.7833 14.1641 8.49144 17.4526C9.15876 17.4526 9.85705 17.4585 10.556 17.4454C10.6462 17.4434 10.749 17.3531 10.8221 17.28C13.2846 14.8222 15.7444 12.3617 18.2016 9.89859C18.2734 9.82613 18.3557 9.72007 18.3577 9.6285C18.3709 8.92955 18.365 8.23061 18.365 7.587V7.58766ZM2.56258 11.5231C5.861 8.22599 9.14624 4.94141 12.4387 1.64958C11.7793 1.64958 11.1028 1.64365 10.4262 1.65617C10.334 1.65814 10.2266 1.73522 10.1548 1.80636C7.67589 4.28001 5.20026 6.7563 2.72727 9.23522C2.65547 9.30768 2.5718 9.41242 2.56983 9.50399C2.55665 10.1819 2.56258 10.8597 2.56258 11.5231Z" fill="#999999"/>
</g>
</g>
<defs>
<clipPath id="clip0_1_10476">
<rect width="20" height="20" fill="white"/>
</clipPath>
<clipPath id="clip1_1_10476">
<rect width="21.0145" height="21" fill="white" transform="translate(-1)"/>
</clipPath>
</defs>
</svg>
