<svg width="76" height="52" viewBox="0 0 76 52" fill="none" xmlns="http://www.w3.org/2000/svg">
<rect width="76" height="52" rx="26" fill="#703BF7"/>
<path d="M33.5502 35.7502C42.6045 35.7502 47.5583 28.2469 47.5583 21.7421C47.5583 21.5312 47.5536 21.3155 47.5442 21.1046C48.5079 20.4077 49.3395 19.5445 50 18.5555C49.1025 18.9548 48.1496 19.2156 47.1739 19.329C48.2013 18.7132 48.9705 17.7457 49.3391 16.606C48.3726 17.1788 47.3156 17.5829 46.2134 17.8009C45.4708 17.0118 44.489 16.4894 43.4197 16.3143C42.3504 16.1392 41.2532 16.3213 40.2977 16.8323C39.3423 17.3434 38.5818 18.1549 38.1338 19.1416C37.6859 20.1282 37.5754 21.2349 37.8195 22.2905C35.8625 22.1923 33.9479 21.6839 32.2 20.7983C30.452 19.9127 28.9097 18.6697 27.673 17.1498C27.0444 18.2335 26.8521 19.5159 27.135 20.7363C27.418 21.9568 28.1551 23.0237 29.1964 23.7202C28.4146 23.6954 27.65 23.4849 26.9656 23.1062V23.1671C26.9649 24.3044 27.3581 25.4068 28.0783 26.287C28.7985 27.1672 29.8013 27.7708 30.9162 27.9952C30.1921 28.1934 29.432 28.2222 28.6948 28.0796C29.0095 29.0577 29.6216 29.9131 30.4458 30.5266C31.27 31.14 32.2651 31.4808 33.2923 31.5015C31.5484 32.8714 29.3942 33.6144 27.1766 33.6109C26.7833 33.6103 26.3904 33.5861 26 33.5387C28.2529 34.984 30.8735 35.7516 33.5502 35.7502Z" fill="white"/>
</svg>
