<svg width="24" height="24" viewBox="0 0 24 24" fill="none" xmlns="http://www.w3.org/2000/svg">
<path d="M19.0065 3.70481C19.3958 3.56325 19.5966 3.13293 19.455 2.74365C19.3135 2.35438 18.8832 2.15356 18.4939 2.29511L6.00037 6.83822V2.99996C6.00037 2.58575 5.66458 2.24996 5.25037 2.24996H3.75037C3.33615 2.24996 3.00037 2.58575 3.00037 2.99996V7.92913L1.9939 8.29511C1.60462 8.43667 1.4038 8.86699 1.54536 9.25627C1.68691 9.64554 2.11724 9.84636 2.50651 9.7048L19.0065 3.70481Z" fill="#999999"/>
<path fill-rule="evenodd" clip-rule="evenodd" d="M3.01932 11.1145L18.0004 5.66684V9.08833L22.0065 10.5451C22.3958 10.6867 22.5966 11.117 22.455 11.5063C22.3135 11.8955 21.8832 12.0964 21.4939 11.9548L21.0002 11.7753V20.25H21.7504C22.1646 20.25 22.5004 20.5857 22.5004 21C22.5004 21.4142 22.1646 21.75 21.7504 21.75H2.25037C1.83615 21.75 1.50037 21.4142 1.50037 21C1.50037 20.5857 1.83615 20.25 2.25037 20.25H3.00037V11.1213L3.01932 11.1145ZM18.0004 20.25V10.6844L19.5002 11.2298V20.25H18.0004ZM9.00037 14.25C8.58615 14.25 8.25037 14.5857 8.25037 15V19.5C8.25037 19.9142 8.58615 20.25 9.00037 20.25H12.0004C12.4146 20.25 12.7504 19.9142 12.7504 19.5V15C12.7504 14.5857 12.4146 14.25 12.0004 14.25H9.00037Z" fill="#999999"/>
</svg>
